<?xml version="1.0" encoding="UTF-8" standalone="no"?>
<!-- Created with Inkscape (http://www.inkscape.org/) -->

<svg
   width="113.92149"
   height="144.66235"
   viewBox="0 0 30.141725 38.275248"
   version="1.1"
   id="svg5"
   xml:space="preserve"
   inkscape:version="1.2.2 (732a01da63, 2022-12-09)"
   sodipodi:docname="delete.svg"
   xmlns:inkscape="http://www.inkscape.org/namespaces/inkscape"
   xmlns:sodipodi="http://sodipodi.sourceforge.net/DTD/sodipodi-0.dtd"
   xmlns="http://www.w3.org/2000/svg"
   xmlns:svg="http://www.w3.org/2000/svg"><sodipodi:namedview
     id="namedview7"
     pagecolor="#ffffff"
     bordercolor="#000000"
     borderopacity="0.25"
     inkscape:showpageshadow="2"
     inkscape:pageopacity="0.0"
     inkscape:pagecheckerboard="true"
     inkscape:deskcolor="#d1d1d1"
     inkscape:document-units="mm"
     showgrid="false"
     inkscape:zoom="1.4770342"
     inkscape:cx="41.976008"
     inkscape:cy="101.55486"
     inkscape:window-width="1920"
     inkscape:window-height="1009"
     inkscape:window-x="1432"
     inkscape:window-y="-8"
     inkscape:window-maximized="1"
     inkscape:current-layer="layer1" /><defs
     id="defs2" /><g
     inkscape:label="Capa 1"
     inkscape:groupmode="layer"
     id="layer1"
     transform="translate(-112.12931,-105.09548)"><path
       style="fill:#ffffff;stroke-width:0.0361099"
       d="m 133.4106,143.31738 c 1.96385,-0.12919 3.12586,-0.38656 4.18876,-0.92774 0.94505,-0.48118 1.61735,-1.18885 2.10865,-2.21959 0.58948,-1.23671 0.8474,-2.69526 0.96055,-5.43186 0.0386,-0.93447 0.0523,-20.48091 0.0143,-20.57972 -0.0194,-0.0506 -0.16594,-0.0571 -1.27805,-0.0571 -1.1121,0 -1.25863,0.007 -1.27803,0.0571 -0.012,0.0314 -0.0221,4.58533 -0.0224,10.11981 -3.6e-4,8.45965 -0.009,10.20939 -0.054,10.9835 -0.13526,2.32226 -0.36335,3.41389 -0.8682,4.1553 -0.10493,0.15411 -0.17995,0.29103 -0.1667,0.30427 0.0132,0.0132 0.008,0.0188 -0.012,0.0125 -0.0199,-0.006 -0.12549,0.0558 -0.23472,0.13809 -0.6439,0.48532 -1.48462,0.70346 -3.26794,0.84793 -0.72847,0.059 -10.03037,0.0861 -11.26631,0.0327 -4.04171,-0.1743 -5.0795,-0.66024 -5.55692,-2.60202 -0.15526,-0.63146 -0.21919,-1.13236 -0.318,-2.49159 -0.0283,-0.3893 -0.0449,-3.75609 -0.0545,-11.05866 l -0.0137,-10.49897 h -1.2816 -1.28159 l 0.0132,10.86006 c 0.0138,11.31411 0.0108,11.09683 0.16975,12.36476 0.18305,1.46048 0.56571,2.63915 1.13224,3.48758 0.21458,0.32137 0.52516,0.66546 0.57361,0.63552 0.0217,-0.0134 0.0281,-0.007 0.0147,0.0148 -0.0532,0.0862 0.68116,0.63303 1.19458,0.88944 1.2266,0.61264 2.75268,0.89138 5.44433,0.99441 1.15513,0.0442 10.38824,0.0189 11.13992,-0.0305 z m 0.35559,-5.58598 c 0.27945,-0.13586 0.58956,-0.45821 0.69699,-0.72451 l 0.0849,-0.21044 v -8.41362 -8.41361 l -0.10196,-0.24078 c -0.12127,-0.2864 -0.42902,-0.60321 -0.69792,-0.71847 -0.57412,-0.2461 -1.29776,-0.0385 -1.64767,0.4727 -0.26039,0.38041 -0.24179,-0.30441 -0.24179,8.90016 0,9.03667 -0.0117,8.51889 0.19946,8.83795 0.13266,0.20047 0.38123,0.43053 0.44057,0.40777 0.0269,-0.0103 0.0393,-0.003 0.0275,0.0158 -0.0236,0.0382 0.18188,0.13809 0.37874,0.18406 0.23909,0.0559 0.63946,0.0107 0.86113,-0.097 z m -11.89962,-0.0601 c 0.27934,-0.12831 0.57049,-0.42837 0.68074,-0.70155 l 0.0845,-0.20932 v -8.44973 c 0,-8.41224 -3.3e-4,-8.45048 -0.0734,-8.62093 -0.0898,-0.2097 -0.33212,-0.50716 -0.38598,-0.47387 -0.0217,0.0134 -0.0291,0.008 -0.0165,-0.0125 0.033,-0.0534 -0.0737,-0.13744 -0.31954,-0.25168 -0.28631,-0.13302 -0.71972,-0.13942 -1.03707,-0.0154 -0.40559,0.15861 -0.73747,0.56719 -0.82107,1.01081 -0.0531,0.28158 -0.0504,16.45476 0.003,16.74231 0.0915,0.49498 0.43907,0.89642 0.90861,1.04944 0.2503,0.0815 0.7235,0.0488 0.97697,-0.0676 z m 5.95486,-0.0693 c 0.28868,-0.13452 0.53862,-0.37994 0.66452,-0.65252 l 0.10398,-0.22512 v -8.48583 -8.48584 l -0.10615,-0.2162 c -0.49827,-1.01483 -1.89641,-1.02301 -2.42758,-0.0142 l -0.1023,0.19429 v 8.52195 8.52195 l 0.0772,0.16692 c 0.14385,0.31111 0.4744,0.60965 0.80751,0.72934 0.25691,0.0923 0.72299,0.0664 0.98284,-0.0548 z m 12.93754,-24.53632 c 0.5081,-0.12592 1.03594,-0.52937 1.27023,-0.9709 0.17737,-0.33428 0.24258,-0.60136 0.24183,-0.99047 -0.002,-0.84203 -0.49766,-1.55831 -1.30494,-1.88435 l -0.20712,-0.0837 -4.51091,-0.0181 -4.51091,-0.0181 -0.062,-0.32499 c -0.10386,-0.54405 -0.24892,-0.92839 -0.55726,-1.47634 -0.16084,-0.28586 -0.50422,-0.72895 -0.55588,-0.71734 -0.0221,0.005 -0.0361,-0.004 -0.0311,-0.0207 0.0162,-0.0535 -0.33725,-0.39425 -0.62011,-0.59791 -0.54573,-0.39293 -1.14961,-0.65517 -1.84439,-0.80092 -0.44875,-0.0941 -1.23828,-0.0873 -1.72145,0.015 -1.81936,0.38512 -3.1904,1.78333 -3.5372,3.60728 l -0.0635,0.33401 -4.35327,2.9e-4 c -2.8284,1.8e-4 -4.43401,0.0134 -4.58376,0.0377 -0.96298,0.15625 -1.67152,0.98655 -1.67788,1.96616 -0.003,0.54141 0.16337,0.97714 0.52629,1.37424 0.32589,0.35658 0.61406,0.51099 1.20152,0.64385 0.0397,0.009 6.06015,0.008 13.37874,-0.003 11.61139,-0.0163 13.33411,-0.0255 13.52317,-0.0724 z m -15.31248,-3.98655 c -0.0494,-0.0798 0.24049,-0.58 0.4669,-0.80565 0.74549,-0.74299 1.91092,-0.73846 2.65582,0.0103 0.2243,0.22547 0.47209,0.63463 0.47209,0.77951 0,0.0485 -0.21147,0.0549 -1.78531,0.0549 -1.24315,0 -1.79266,-0.0119 -1.8095,-0.0392 z"
       id="path125"
       sodipodi:nodetypes="sssssscccssccsssscccccssccsssscscccsssssscscccscssscscscscccscccsscccsscccscscccssccsssccsccscccccsssscc" /></g></svg>
