<?xml version="1.0" encoding="UTF-8" standalone="no"?>
<!-- Created with Inkscape (http://www.inkscape.org/) -->

<svg
   width="113.44395"
   height="113.46764"
   viewBox="0 0 30.015378 30.021648"
   version="1.1"
   id="svg5"
   inkscape:version="1.2.2 (732a01da63, 2022-12-09)"
   sodipodi:docname="exit.svg"
   xml:space="preserve"
   xmlns:inkscape="http://www.inkscape.org/namespaces/inkscape"
   xmlns:sodipodi="http://sodipodi.sourceforge.net/DTD/sodipodi-0.dtd"
   xmlns="http://www.w3.org/2000/svg"
   xmlns:svg="http://www.w3.org/2000/svg"><sodipodi:namedview
     id="namedview7"
     pagecolor="#ffffff"
     bordercolor="#000000"
     borderopacity="0.25"
     inkscape:showpageshadow="2"
     inkscape:pageopacity="0.0"
     inkscape:pagecheckerboard="true"
     inkscape:deskcolor="#d1d1d1"
     inkscape:document-units="mm"
     showgrid="false"
     inkscape:zoom="2.0888418"
     inkscape:cx="193.40861"
     inkscape:cy="-68.937723"
     inkscape:window-width="1920"
     inkscape:window-height="1009"
     inkscape:window-x="1432"
     inkscape:window-y="-8"
     inkscape:window-maximized="1"
     inkscape:current-layer="layer1" /><defs
     id="defs2" /><g
     inkscape:label="Capa 1"
     inkscape:groupmode="layer"
     id="layer1"
     transform="translate(-2964.2572,-1078.2592)"><path
       style="fill:#ffffff;stroke-width:0.00781885"
       d="m 2965.5947,1108.271 c 0.2363,-0.019 0.4599,-0.1005 0.6481,-0.2363 0.035,-0.025 2.3685,-2.3528 6.5385,-6.5221 l 6.4838,-6.4825 6.4877,6.4864 c 5.7045,5.7034 6.4961,6.4921 6.558,6.5336 0.096,0.065 0.1883,0.1125 0.2815,0.147 0.3922,0.1452 0.8377,0.083 1.1742,-0.1654 0.073,-0.054 0.2042,-0.1828 0.2544,-0.25 0.2416,-0.3234 0.3138,-0.735 0.1968,-1.1207 -0.04,-0.1322 -0.1104,-0.2704 -0.1966,-0.3865 -0.019,-0.026 -2.9509,-2.9638 -6.5142,-6.5277 l -6.4787,-6.4799 6.4708,-6.472 c 3.5589,-3.5597 6.4849,-6.4897 6.5023,-6.5112 0.3314,-0.4109 0.3613,-1.0122 0.072,-1.4543 -0.3164,-0.4839 -0.9016,-0.6867 -1.4525,-0.5035 -0.095,0.032 -0.2151,0.093 -0.3114,0.1594 -0.069,0.048 -0.755,0.7309 -6.5608,6.5357 l -6.4838,6.4828 -6.4798,-6.4789 c -4.4043,-4.4036 -6.4987,-6.4925 -6.5386,-6.5214 -0.1164,-0.084 -0.2322,-0.1438 -0.3603,-0.1847 -0.3113,-0.099 -0.6552,-0.073 -0.9398,0.072 -0.5565,0.2828 -0.8191,0.9144 -0.6261,1.5063 0.044,0.136 0.1214,0.2791 0.2084,0.3869 0.018,0.022 2.9434,2.9516 6.5023,6.5112 l 6.4708,6.472 -6.4788,6.4799 c -3.5633,3.5639 -6.4946,6.5014 -6.5141,6.5278 -0.2419,0.326 -0.3137,0.735 -0.1966,1.1206 0.04,0.1327 0.1111,0.2719 0.1968,0.3865 0.05,0.067 0.1818,0.1966 0.2543,0.2501 0.1815,0.1336 0.4114,0.2204 0.6321,0.2386 0.044,0 0.085,0.01 0.09,0.01 0.01,6e-4 0.054,0 0.1094,-0.01 z"
       id="path129"
       sodipodi:nodetypes="ssscsssssssscsssssscssssssscssssssss" /></g></svg>
