<?xml version="1.0" encoding="UTF-8" standalone="no"?>
<!-- Created with Inkscape (http://www.inkscape.org/) -->

<svg
   width="30"
   height="30"
   viewBox="0 0 7.9374998 7.9375"
   version="1.1"
   id="svg5"
   inkscape:version="1.2.2 (732a01da63, 2022-12-09)"
   sodipodi:docname="play.svg"
   xml:space="preserve"
   xmlns:inkscape="http://www.inkscape.org/namespaces/inkscape"
   xmlns:sodipodi="http://sodipodi.sourceforge.net/DTD/sodipodi-0.dtd"
   xmlns="http://www.w3.org/2000/svg"
   xmlns:svg="http://www.w3.org/2000/svg"><sodipodi:namedview
     id="namedview7"
     pagecolor="#ffffff"
     bordercolor="#000000"
     borderopacity="0.25"
     inkscape:showpageshadow="false"
     inkscape:pageopacity="0.0"
     inkscape:pagecheckerboard="true"
     inkscape:deskcolor="#d1d1d1"
     inkscape:document-units="px"
     showgrid="false"
     inkscape:zoom="16.710735"
     inkscape:cx="3.7700317"
     inkscape:cy="16.097437"
     inkscape:window-width="1920"
     inkscape:window-height="1009"
     inkscape:window-x="1432"
     inkscape:window-y="-8"
     inkscape:window-maximized="1"
     inkscape:current-layer="layer1"
     showborder="false" /><defs
     id="defs2" /><g
     inkscape:label="Capa 1"
     inkscape:groupmode="layer"
     id="layer1"><path
       style="fill:#ffffff;stroke:#ffffff;stroke-width:0.326692;stroke-dasharray:none;stroke-opacity:1"
       d="m 6.3269708,6.6268267 c 0.7451178,-0.2071496 1.2695543,-0.793925 1.3727583,-1.5359343 0.02439,-0.1753532 0.02439,-1.8793741 0,-2.0547272 C 7.5872848,2.2277193 6.9496592,1.5834758 6.14846,1.4687946 6.0511429,1.4548633 5.4155194,1.4509361 3.8843272,1.4547963 l -2.1288315,0.00534 -0.1328218,0.037609 C 1.0828387,1.6506206 0.67135792,1.9751632 0.43424888,2.4350842 0.35037906,2.5977663 0.28727206,2.7773629 0.25245531,2.9524496 c -0.0343238,0.1726098 -0.0343238,2.0495167 0,2.2221275 0.13797496,0.6938507 0.6230186,1.2283464 1.29948669,1.431974 0.065307,0.019655 0.1645391,0.042444 0.2205163,0.050642 0.055978,0.00822 1.071201,0.01373 2.2560528,0.012297 L 6.182787,6.6669201 Z M 1.7044955,6.3204618 C 1.1002717,6.1619628 0.66787749,5.6972356 0.56048303,5.0909028 c -0.024053,-0.1357969 -0.024053,-1.9189512 0,-2.054749 C 0.6178948,2.7120154 0.76592373,2.4311329 1.0023618,2.1976953 1.1606206,2.0414446 1.3519604,1.9243862 1.5814152,1.8434421 l 0.1740805,-0.061411 2.1627572,-0.00478 c 1.9484226,-0.0043 2.1751821,-0.002 2.2881322,0.022895 0.5866784,0.1294637 1.0406377,0.5908373 1.1623012,1.1812836 0.04002,0.1942169 0.04002,1.9699716 0,2.1641875 C 7.2471041,5.73567 6.8018055,6.1891251 6.2082312,6.32733 6.1127913,6.3495554 5.8107207,6.3529085 3.9606597,6.3523165 1.9418392,6.3516833 1.8167578,6.3499282 1.7044955,6.3204605 Z M 4.155732,4.6620025 C 4.5988854,4.4064926 4.9746536,4.1806676 4.9907729,4.160169 c 0.016119,-0.020496 0.029308,-0.06399 0.029308,-0.09664 0,-0.032649 -0.013189,-0.076144 -0.029308,-0.096641 C 4.9746543,3.9463919 4.5956435,3.7185363 4.148528,3.4605489 3.310872,2.977216 3.2802912,2.9628978 3.1894707,3.0115035 c -0.083514,0.044699 -0.085433,0.068424 -0.085406,1.0557211 1.73e-5,0.8426408 0.00255,0.925815 0.029685,0.9801462 0.031773,0.063599 0.1160777,0.1045976 0.1811562,0.088099 0.019302,-0.00488 0.3976729,-0.2179536 0.8408261,-0.4734624 z"
       id="path3238"
       sodipodi:nodetypes="ssssccssssssscsssssscscssscssssssscssscs" /></g></svg>
