<?xml version="1.0" encoding="UTF-8" standalone="no"?>
<!-- Created with Inkscape (http://www.inkscape.org/) -->

<svg
   width="30.671017"
   height="18.71936"
   viewBox="0 0 8.1150399 4.9528308"
   version="1.1"
   id="svg5"
   inkscape:version="1.2.2 (732a01da63, 2022-12-09)"
   sodipodi:docname="preview.svg"
   xml:space="preserve"
   xmlns:inkscape="http://www.inkscape.org/namespaces/inkscape"
   xmlns:sodipodi="http://sodipodi.sourceforge.net/DTD/sodipodi-0.dtd"
   xmlns="http://www.w3.org/2000/svg"
   xmlns:svg="http://www.w3.org/2000/svg"><sodipodi:namedview
     id="namedview7"
     pagecolor="#ffffff"
     bordercolor="#000000"
     borderopacity="0.25"
     inkscape:showpageshadow="2"
     inkscape:pageopacity="0.0"
     inkscape:pagecheckerboard="true"
     inkscape:deskcolor="#d1d1d1"
     inkscape:document-units="mm"
     showgrid="false"
     inkscape:zoom="23.632548"
     inkscape:cx="19.274266"
     inkscape:cy="3.469791"
     inkscape:window-width="1920"
     inkscape:window-height="1009"
     inkscape:window-x="1432"
     inkscape:window-y="-8"
     inkscape:window-maximized="1"
     inkscape:current-layer="layer1" /><defs
     id="defs2" /><g
     inkscape:label="Capa 1"
     inkscape:groupmode="layer"
     id="layer1"
     transform="translate(-110.02934,-210.89746)"><path
       style="fill:#ffffff;stroke-width:0.00656591"
       d="m 114.46751,215.84116 c 0.25695,-0.0272 0.46094,-0.0614 0.65331,-0.10932 0.33693,-0.084 0.64665,-0.19929 0.95206,-0.3545 0.22107,-0.11234 0.41548,-0.22953 0.61391,-0.37006 0.51588,-0.36533 0.99357,-0.86081 1.36599,-1.41685 0.077,-0.11499 0.0916,-0.14936 0.0916,-0.21536 0,-0.0659 -0.0147,-0.1004 -0.0915,-0.21536 -0.28281,-0.42316 -0.6459,-0.83095 -1.02472,-1.15086 -0.57301,-0.48389 -1.2104,-0.81599 -1.89498,-0.98734 -0.19662,-0.0492 -0.4072,-0.0851 -0.64036,-0.10905 -0.13787,-0.0142 -0.52086,-0.0199 -0.67579,-0.0101 -0.59777,0.0379 -1.16004,0.19129 -1.70346,0.46475 -0.38442,0.19345 -0.70933,0.41373 -1.05266,0.71369 -0.10865,0.0949 -0.36556,0.35118 -0.46482,0.46365 -0.2294,0.2599 -0.53134,0.66952 -0.55685,0.75543 -0.0132,0.0445 -0.0132,0.1058 0,0.15031 0.0183,0.0618 0.22777,0.35929 0.40922,0.58138 0.60504,0.74052 1.38799,1.30188 2.2068,1.58223 0.38048,0.13028 0.71145,0.19874 1.12605,0.23293 0.0909,0.007 0.60196,0.003 0.68614,-0.006 z m -0.64674,-0.49365 c -0.53279,-0.0394 -1.05267,-0.1877 -1.53315,-0.43746 -0.55802,-0.29006 -1.06428,-0.7136 -1.49337,-1.24936 -0.0596,-0.0744 -0.18164,-0.23665 -0.20291,-0.26972 -0.0108,-0.0168 -0.0106,-0.0174 0.0556,-0.10834 0.38554,-0.53016 0.86223,-0.9778 1.37806,-1.29408 0.1206,-0.0739 0.15853,-0.0948 0.31844,-0.17499 0.44098,-0.22116 0.87666,-0.34882 1.37228,-0.40209 0.11631,-0.0125 0.51786,-0.0183 0.63361,-0.009 0.4168,0.033 0.79239,0.11966 1.16724,0.26942 0.14918,0.0596 0.19675,0.0813 0.34949,0.15916 0.62622,0.31938 1.18732,0.80824 1.65039,1.43792 0.0632,0.0859 0.0753,0.106 0.0699,0.11606 -0.0125,0.0233 -0.20224,0.27296 -0.25953,0.34144 -0.16337,0.19528 -0.38452,0.42477 -0.5448,0.56535 -0.72619,0.63695 -1.54734,0.99208 -2.44252,1.05635 -0.10604,0.008 -0.41272,0.007 -0.51871,-4.7e-4 z m 0.51542,-0.59922 c 0.20234,-0.0385 0.36551,-0.10486 0.53184,-0.2164 0.31633,-0.21211 0.53167,-0.54851 0.59762,-0.93358 0.0157,-0.0915 0.0216,-0.25777 0.0125,-0.35128 -0.0416,-0.42698 -0.27332,-0.80919 -0.63231,-1.04287 -0.2131,-0.13872 -0.44954,-0.21277 -0.70989,-0.22233 -0.71271,-0.0262 -1.32592,0.48614 -1.43189,1.19626 -0.0155,0.10397 -0.0156,0.29321 -1.1e-4,0.39396 0.0626,0.40768 0.28325,0.75195 0.62495,0.9749 0.17307,0.11293 0.36714,0.18398 0.58381,0.21373 0.10651,0.0146 0.31321,0.009 0.4235,-0.0124 z m -0.33486,-0.48108 c -0.19724,-0.025 -0.36177,-0.0965 -0.50145,-0.21777 -0.14242,-0.12366 -0.23831,-0.28419 -0.28712,-0.48068 -0.0137,-0.055 -0.0155,-0.0778 -0.0156,-0.19369 -6e-5,-0.12083 0.001,-0.13683 0.0175,-0.20026 0.0854,-0.33589 0.32873,-0.58458 0.65234,-0.66668 0.43935,-0.11144 0.89762,0.12814 1.05748,0.55284 0.0353,0.0938 0.0494,0.16932 0.0532,0.28455 0.005,0.167 -0.0192,0.28072 -0.093,0.43007 -0.12299,0.2489 -0.35915,0.42752 -0.63383,0.47942 -0.0554,0.0105 -0.20542,0.0178 -0.24951,0.0122 z"
       id="path129"
       sodipodi:nodetypes="sssssscssscsssssssssscssscssscsssssssccssscsssssssssssccsssssss" /></g></svg>
